<svg width="15" height="352" viewBox="0 0 15 352" fill="none" xmlns="http://www.w3.org/2000/svg">
<path d="M1.13152 346.604C1.13152 345.86 1.26952 345.224 1.54552 344.696C1.82152 344.156 2.19352 343.748 2.66151 343.472C3.12952 343.184 3.63952 343.04 4.19152 343.04C4.92352 343.04 5.52952 343.256 6.00952 343.688C6.47752 344.108 6.79552 344.672 6.96352 345.38C7.03552 344.576 7.32352 343.922 7.82752 343.418C8.33152 342.914 9.01552 342.662 9.87952 342.662C10.5755 342.662 11.2055 342.83 11.7695 343.166C12.3335 343.502 12.7775 343.982 13.1015 344.606C13.4135 345.23 13.5695 345.95 13.5695 346.766C13.5695 347.498 13.4375 348.17 13.1735 348.782C12.8975 349.394 12.4895 349.928 11.9495 350.384L11.0315 349.394C11.4395 348.998 11.7395 348.596 11.9315 348.188C12.1235 347.768 12.2195 347.312 12.2195 346.82C12.2195 346.064 12.0095 345.47 11.5895 345.038C11.1575 344.606 10.5815 344.39 9.86152 344.39C9.06952 344.39 8.51152 344.594 8.18752 345.002C7.86352 345.41 7.70152 346.004 7.70152 346.784V347.684L6.42352 347.486V346.874C6.42352 346.25 6.23752 345.734 5.86552 345.326C5.49352 344.906 4.97152 344.696 4.29952 344.696C3.73552 344.696 3.29152 344.876 2.96752 345.236C2.63152 345.596 2.46352 346.082 2.46352 346.694C2.46352 347.162 2.54752 347.594 2.71552 347.99C2.88352 348.374 3.15952 348.77 3.54352 349.178L2.55352 350.042C1.60552 349.022 1.13152 347.876 1.13152 346.604ZM9.06952 324.724H10.3835L10.3835 326.29H13.3535V327.892H10.3835L10.3835 333.04H9.19552L1.13152 329.422L1.70752 328.036L9.06952 331.294L9.06952 327.874L5.82952 327.73V326.29H9.06952L9.06952 324.724ZM11.0675 314.038C11.0675 313.678 11.1875 313.378 11.4275 313.138C11.6675 312.898 11.9615 312.778 12.3095 312.778C12.6575 312.778 12.9575 312.898 13.2095 313.138C13.4495 313.378 13.5695 313.678 13.5695 314.038C13.5695 314.386 13.4495 314.68 13.2095 314.92C12.9575 315.16 12.6575 315.28 12.3095 315.28C11.9615 315.28 11.6675 315.16 11.4275 314.92C11.1875 314.68 11.0675 314.386 11.0675 314.038ZM1.13152 299.044C1.13152 297.712 1.66552 296.71 2.73352 296.038C3.78952 295.354 5.32552 295.012 7.34152 295.012C9.35752 295.012 10.8995 295.354 11.9675 296.038C13.0355 296.71 13.5695 297.712 13.5695 299.044C13.5695 300.376 13.0355 301.384 11.9675 302.068C10.8995 302.74 9.35752 303.076 7.34152 303.076C5.32552 303.076 3.78952 302.74 2.73352 302.068C1.66552 301.384 1.13152 300.376 1.13152 299.044ZM2.44552 299.044C2.44552 299.824 2.82952 300.406 3.59751 300.79C4.36552 301.162 5.61352 301.348 7.34152 301.348C9.06952 301.348 10.3235 301.162 11.1035 300.79C11.8715 300.406 12.2555 299.824 12.2555 299.044C12.2555 298.276 11.8715 297.7 11.1035 297.316C10.3235 296.932 9.06952 296.74 7.34152 296.74C5.62552 296.74 4.38352 296.932 3.61552 297.316C2.83552 297.7 2.44552 298.276 2.44552 299.044ZM2.60752 278.469L2.60752 283.167H6.15352C5.84152 282.555 5.68552 281.913 5.68552 281.241C5.68552 280.209 6.02752 279.381 6.71152 278.757C7.38352 278.133 8.31352 277.821 9.50152 277.821C10.2935 277.821 11.0015 277.995 11.6255 278.343C12.2375 278.691 12.7175 279.183 13.0655 279.819C13.4015 280.443 13.5695 281.169 13.5695 281.997C13.5695 282.729 13.4435 283.383 13.1915 283.959C12.9275 284.535 12.5435 285.069 12.0395 285.561L11.0855 284.589C11.4695 284.205 11.7575 283.809 11.9495 283.401C12.1295 282.993 12.2195 282.531 12.2195 282.015C12.2195 281.247 11.9795 280.647 11.4995 280.215C11.0195 279.771 10.3415 279.549 9.46552 279.549C8.58952 279.549 7.95352 279.747 7.55752 280.143C7.16152 280.539 6.96352 281.073 6.96352 281.745C6.96352 282.057 6.99952 282.345 7.07152 282.609C7.13152 282.873 7.23352 283.155 7.37752 283.455V284.751H1.31152L1.31152 278.235L2.60752 278.469ZM1.13152 263.99C1.13152 262.658 1.66552 261.656 2.73352 260.984C3.78952 260.3 5.32552 259.958 7.34152 259.958C9.35752 259.958 10.8995 260.3 11.9675 260.984C13.0355 261.656 13.5695 262.658 13.5695 263.99C13.5695 265.322 13.0355 266.33 11.9675 267.014C10.8995 267.686 9.35752 268.022 7.34152 268.022C5.32552 268.022 3.78952 267.686 2.73352 267.014C1.66552 266.33 1.13152 265.322 1.13152 263.99ZM2.44552 263.99C2.44552 264.77 2.82952 265.352 3.59751 265.736C4.36552 266.108 5.61352 266.294 7.34152 266.294C9.06952 266.294 10.3235 266.108 11.1035 265.736C11.8715 265.352 12.2555 264.77 12.2555 263.99C12.2555 263.222 11.8715 262.646 11.1035 262.262C10.3235 261.878 9.06952 261.686 7.34152 261.686C5.62552 261.686 4.38352 261.878 3.61552 262.262C2.83552 262.646 2.44552 263.222 2.44552 263.99ZM1.31152 245.161H13.3535V246.817H3.07551L4.78552 249.625L3.61552 250.345L1.31152 246.619V245.161ZM13.3535 203.93V206.216L2.82351 211.256C3.65152 211.184 4.41952 211.13 5.12752 211.094C5.82352 211.046 6.66952 211.022 7.66552 211.022H13.3535V212.624H0.951515L0.951515 210.392L11.4995 205.298C11.1875 205.334 10.6415 205.382 9.86152 205.442C9.08152 205.502 8.36752 205.532 7.71952 205.532H0.951515L0.951515 203.93H13.3535ZM8.42152 180.293H7.01752L7.01752 175.199H8.42152L8.42152 180.293ZM1.31152 161.565H13.3535V163.221H3.07551L4.78552 166.029L3.61552 166.749L1.31152 163.023L1.31152 161.565ZM1.31152 146.024H13.3535V147.68H3.07551L4.78552 150.488L3.61552 151.208L1.31152 147.482V146.024ZM6.89152 129.481C7.57552 127.789 8.65552 126.943 10.1315 126.943C10.7915 126.943 11.3855 127.123 11.9135 127.483C12.4295 127.831 12.8375 128.323 13.1375 128.959C13.4255 129.595 13.5695 130.315 13.5695 131.119C13.5695 131.935 13.4255 132.655 13.1375 133.279C12.8495 133.903 12.4475 134.389 11.9315 134.737C11.4155 135.073 10.8275 135.241 10.1675 135.241C9.42352 135.241 8.79952 135.043 8.29552 134.647C7.79152 134.239 7.37152 133.645 7.03552 132.865C6.71152 133.501 6.32152 133.975 5.86552 134.287C5.39752 134.587 4.85152 134.737 4.22752 134.737C3.57951 134.737 3.02151 134.569 2.55352 134.233C2.08551 133.885 1.73151 133.435 1.49151 132.883C1.25152 132.319 1.13152 131.719 1.13152 131.083C1.13152 130.459 1.24552 129.871 1.47352 129.319C1.70152 128.755 2.04951 128.299 2.51751 127.951C2.97352 127.603 3.52552 127.429 4.17351 127.429C4.77352 127.429 5.28952 127.597 5.72152 127.933C6.15352 128.269 6.54352 128.785 6.89152 129.481ZM2.37352 131.083C2.37352 131.707 2.53552 132.205 2.85952 132.577C3.18351 132.937 3.64551 133.117 4.24551 133.117C4.82151 133.117 5.25952 132.943 5.55952 132.595C5.85952 132.235 6.13552 131.665 6.38752 130.885L6.49552 130.579C6.18352 130.039 5.85352 129.649 5.50552 129.409C5.15752 129.169 4.73152 129.049 4.22752 129.049C3.66352 129.049 3.21352 129.229 2.87752 129.589C2.54152 129.937 2.37352 130.435 2.37352 131.083ZM12.2555 131.101C12.2555 130.357 12.0635 129.769 11.6795 129.337C11.2955 128.893 10.7855 128.671 10.1495 128.671C9.71752 128.671 9.35752 128.755 9.06952 128.923C8.76952 129.091 8.51152 129.361 8.29552 129.733C8.06752 130.105 7.83952 130.627 7.61152 131.299L7.44952 131.749C7.73752 132.349 8.10352 132.793 8.54752 133.081C8.97952 133.369 9.51952 133.513 10.1675 133.513C10.8275 133.513 11.3435 133.297 11.7155 132.865C12.0755 132.433 12.2555 131.845 12.2555 131.101ZM11.0675 115.995C11.0675 115.635 11.1875 115.335 11.4275 115.095C11.6675 114.855 11.9615 114.735 12.3095 114.735C12.6575 114.735 12.9575 114.855 13.2095 115.095C13.4495 115.335 13.5695 115.635 13.5695 115.995C13.5695 116.343 13.4495 116.637 13.2095 116.877C12.9575 117.117 12.6575 117.237 12.3095 117.237C11.9615 117.237 11.6675 117.117 11.4275 116.877C11.1875 116.637 11.0675 116.343 11.0675 115.995ZM1.13152 101.708C1.13152 100.988 1.27552 100.358 1.56352 99.8185C1.85151 99.2665 2.24751 98.8405 2.75151 98.5405C3.24351 98.2405 3.80152 98.0905 4.42552 98.0905C5.15752 98.0905 5.85952 98.2585 6.53152 98.5945C7.20352 98.9185 7.92952 99.4225 8.70952 100.106C9.48952 100.79 10.5755 101.828 11.9675 103.22L11.9675 97.8025L13.3535 98.0005V105.11H12.0395C10.3715 103.502 9.15352 102.362 8.38552 101.69C7.60552 101.018 6.92752 100.538 6.35152 100.25C5.77552 99.9625 5.15752 99.8185 4.49752 99.8185C3.87352 99.8185 3.38752 99.9985 3.03952 100.358C2.67952 100.718 2.49951 101.198 2.49951 101.798C2.49951 102.29 2.60151 102.722 2.80552 103.094C3.00952 103.466 3.34552 103.862 3.81352 104.282L2.94952 105.362C2.33752 104.871 1.88152 104.324 1.58151 103.724C1.28152 103.124 1.13152 102.452 1.13152 101.708ZM9.06952 80.3566H10.3835V81.9226H13.3535V83.5246H10.3835L10.3835 88.6726H9.19552L1.13152 85.0546L1.70752 83.6686L9.06952 86.9266V83.5066L5.82952 83.3626L5.82952 81.9226H9.06952V80.3566ZM9.06952 62.7765H10.3835V64.3425H13.3535V65.9445H10.3835L10.3835 71.0925H9.19552L1.13152 67.4745L1.70752 66.0885L9.06952 69.3465V65.9265L5.82952 65.7825L5.82952 64.3425H9.06952V62.7765ZM5.43352 48.6884C5.43352 48.0764 5.57752 47.5184 5.86552 47.0144C6.15352 46.5104 6.58552 46.1084 7.16152 45.8084C7.73752 45.5084 8.43952 45.3584 9.26752 45.3584C10.1195 45.3584 10.8755 45.5324 11.5355 45.8804C12.1835 46.2164 12.6875 46.6784 13.0475 47.2664C13.3955 47.8424 13.5695 48.4844 13.5695 49.1924C13.5695 50.5964 13.0535 51.6224 12.0215 52.2704C10.9775 52.9184 9.53752 53.2424 7.70152 53.2424C6.39352 53.2424 5.24752 53.0624 4.26352 52.7024C3.26752 52.3304 2.49952 51.8024 1.95952 51.1184C1.40752 50.4344 1.13152 49.6244 1.13152 48.6884C1.13152 47.7764 1.37752 46.9484 1.86952 46.2044L2.96752 46.8524C2.61952 47.4164 2.44552 48.0344 2.44552 48.7064C2.44552 49.5704 2.85952 50.2544 3.68752 50.7584C4.51552 51.2624 5.62552 51.5384 7.01752 51.5864C5.96152 50.8424 5.43352 49.8764 5.43352 48.6884ZM12.2555 49.1924C12.2555 48.4964 11.9915 47.9624 11.4635 47.5904C10.9355 47.2184 10.2215 47.0324 9.32152 47.0324C7.60552 47.0324 6.74752 47.6804 6.74752 48.9764C6.74752 49.5044 6.89752 49.9904 7.19752 50.4344C7.48552 50.8784 7.88752 51.2564 8.40352 51.5684C9.72352 51.5324 10.6955 51.3284 11.3195 50.9564C11.9435 50.5724 12.2555 49.9844 12.2555 49.1924ZM0.951515 1.45309L13.3535 3.97309L13.3535 6.16909L2.96752 8.45509L13.3535 10.7591V12.9011L0.951515 15.4211V13.7471L11.8595 11.7491L0.951515 9.35509V7.53709L11.8595 5.08909L0.951515 3.01909L0.951515 1.45309Z" fill="white"/>
<path d="M1.54552 344.696L1.98865 344.928L1.99073 344.924L1.54552 344.696ZM2.66151 343.472L2.91555 343.903L2.92356 343.898L2.66151 343.472ZM6.00952 343.688L5.67503 344.06L5.67556 344.06L6.00952 343.688ZM6.96352 345.38L6.47702 345.496L7.46152 345.425L6.96352 345.38ZM7.82752 343.418L8.18107 343.772L8.18107 343.772L7.82752 343.418ZM11.7695 343.166L11.5136 343.596L11.5136 343.596L11.7695 343.166ZM13.1015 344.606L13.5488 344.383L13.5453 344.376L13.1015 344.606ZM13.1735 348.782L13.6294 348.988L13.6326 348.98L13.1735 348.782ZM11.9495 350.384L11.5829 350.724L11.9074 351.074L12.2721 350.766L11.9495 350.384ZM11.0315 349.394L10.6833 349.036L10.3326 349.376L10.6649 349.734L11.0315 349.394ZM11.9315 348.188L12.384 348.401L12.3863 348.396L11.9315 348.188ZM11.5895 345.038L11.948 344.69L11.9431 344.685L11.5895 345.038ZM8.18752 345.002L8.57907 345.313L8.57907 345.313L8.18752 345.002ZM7.70152 347.684L7.62496 348.178L8.20152 348.268L8.20152 347.684H7.70152ZM6.42352 347.486H5.92352V347.915L6.34696 347.98L6.42352 347.486ZM5.86552 345.326L5.49118 345.658L5.49604 345.663L5.86552 345.326ZM2.96752 345.236L3.3331 345.578L3.33916 345.571L2.96752 345.236ZM2.71552 347.99L2.2552 348.186L2.25744 348.191L2.71552 347.99ZM3.54352 349.178L3.87228 349.555L4.26342 349.214L3.90762 348.836L3.54352 349.178ZM2.55352 350.042L2.18727 350.383L2.51718 350.738L2.88228 350.419L2.55352 350.042ZM1.63152 346.604C1.63152 345.921 1.75816 345.369 1.98863 344.928L1.1024 344.465C0.780874 345.08 0.631515 345.799 0.631515 346.604H1.63152ZM1.99073 344.924C2.22873 344.458 2.5385 344.125 2.91551 343.903L2.40752 343.042C1.84853 343.371 1.4143 343.854 1.1003 344.469L1.99073 344.924ZM2.92356 343.898C3.31238 343.659 3.7316 343.54 4.19152 343.54V342.54C3.54743 342.54 2.94665 342.71 2.39947 343.046L2.92356 343.898ZM4.19152 343.54C4.81767 343.54 5.29919 343.722 5.67503 344.06L6.344 343.317C5.75984 342.791 5.02936 342.54 4.19152 342.54V343.54ZM5.67556 344.06C6.05634 344.402 6.32873 344.871 6.47702 345.496L7.45001 345.265C7.2623 344.474 6.89869 343.814 6.34347 343.316L5.67556 344.06ZM7.46152 345.425C7.52454 344.721 7.77089 344.182 8.18107 343.772L7.47396 343.065C6.87614 343.663 6.54649 344.431 6.46551 345.336L7.46152 345.425ZM8.18107 343.772C8.57202 343.381 9.1181 343.162 9.87952 343.162L9.87952 342.162C8.91293 342.162 8.09101 342.448 7.47396 343.065L8.18107 343.772ZM9.87952 343.162C10.4911 343.162 11.0317 343.309 11.5136 343.596L12.0254 342.737C11.3793 342.352 10.66 342.162 9.87952 342.162L9.87952 343.162ZM11.5136 343.596C11.992 343.881 12.3735 344.289 12.6578 344.837L13.5453 344.376C13.1816 343.675 12.675 343.124 12.0254 342.737L11.5136 343.596ZM12.6543 344.83C12.9262 345.374 13.0695 346.015 13.0695 346.766H14.0695C14.0695 345.886 13.9009 345.087 13.5487 344.383L12.6543 344.83ZM13.0695 346.766C13.0695 347.437 12.9489 348.041 12.7144 348.584L13.6326 348.98C13.9261 348.3 14.0695 347.56 14.0695 346.766H13.0695ZM12.7177 348.577C12.474 349.117 12.113 349.592 11.6269 350.002L12.2721 350.766C12.866 350.265 13.321 349.671 13.6293 348.988L12.7177 348.577ZM12.3161 350.044L11.3981 349.054L10.6649 349.734L11.5829 350.724L12.3161 350.044ZM11.3798 349.753C11.8202 349.326 12.1606 348.876 12.3839 348.401L11.4791 347.975C11.3185 348.317 11.0589 348.671 10.6833 349.036L11.3798 349.753ZM12.3863 348.396C12.61 347.907 12.7195 347.379 12.7195 346.82H11.7195C11.7195 347.245 11.637 347.63 11.4768 347.98L12.3863 348.396ZM12.7195 346.82C12.7195 345.969 12.4804 345.237 11.948 344.69L11.231 345.387C11.5386 345.703 11.7195 346.16 11.7195 346.82H12.7195ZM11.9431 344.685C11.4007 344.142 10.6886 343.89 9.86152 343.89V344.89C10.4744 344.89 10.9143 345.07 11.236 345.392L11.9431 344.685ZM9.86152 343.89C8.99796 343.89 8.25577 344.112 7.79596 344.691L8.57907 345.313C8.76726 345.076 9.14107 344.89 9.86152 344.89V343.89ZM7.79596 344.691C7.37435 345.222 7.20152 345.945 7.20152 346.784H8.20152C8.20152 346.063 8.35268 345.598 8.57907 345.313L7.79596 344.691ZM7.20152 346.784V347.684H8.20152V346.784H7.20152ZM7.77807 347.19L6.50007 346.992L6.34696 347.98L7.62496 348.178L7.77807 347.19ZM6.92352 347.486V346.874H5.92352V347.486H6.92352ZM6.92352 346.874C6.92352 346.143 6.70202 345.502 6.23499 344.989L5.49604 345.663C5.77301 345.967 5.92352 346.357 5.92352 346.874H6.92352ZM6.23981 344.995C5.75418 344.446 5.08373 344.196 4.29952 344.196V345.196C4.8593 345.196 5.23285 345.366 5.49122 345.658L6.23981 344.995ZM4.29952 344.196C3.6194 344.196 3.03058 344.419 2.59587 344.902L3.33916 345.571C3.55245 345.334 3.85163 345.196 4.29952 345.196V344.196ZM2.60199 344.895C2.15986 345.369 1.96352 345.988 1.96352 346.694H2.96352C2.96352 346.177 3.10317 345.824 3.33304 345.577L2.60199 344.895ZM1.96352 346.694C1.96352 347.223 2.05879 347.723 2.25522 348.186L3.17581 347.795C3.03624 347.466 2.96352 347.101 2.96352 346.694H1.96352ZM2.25744 348.191C2.45466 348.642 2.76857 349.084 3.17942 349.521L3.90762 348.836C3.55046 348.456 3.31237 348.107 3.17359 347.79L2.25744 348.191ZM3.21475 348.802L2.22475 349.666L2.88228 350.419L3.87228 349.555L3.21475 348.802ZM2.91976 349.702C2.04887 348.765 1.63152 347.738 1.63152 346.604H0.631515C0.631515 348.015 1.16216 349.28 2.18727 350.383L2.91976 349.702ZM9.06952 324.724V324.224H8.56952V324.724H9.06952ZM10.3835 324.724H10.8835V324.224H10.3835V324.724ZM10.3835 326.29H9.88352V326.79H10.3835V326.29ZM13.3535 326.29H13.8535V325.79H13.3535V326.29ZM13.3535 327.892V328.392H13.8535V327.892H13.3535ZM10.3835 327.892V327.392H9.88352V327.892H10.3835ZM10.3835 333.04V333.54H10.8835V333.04H10.3835ZM9.19552 333.04L8.99084 333.496L9.08849 333.54H9.19552V333.04ZM1.13152 329.422L0.6698 329.23L0.483193 329.679L0.926841 329.878L1.13152 329.422ZM1.70752 328.036L1.90986 327.579L1.4421 327.372L1.2458 327.844L1.70752 328.036ZM9.06952 331.294L8.86717 331.751L9.56952 332.062V331.294H9.06952ZM9.06952 327.874H9.56952V327.395L9.09172 327.374L9.06952 327.874ZM5.82952 327.73H5.32952V328.208L5.80732 328.229L5.82952 327.73ZM5.82952 326.29V325.79H5.32952V326.29H5.82952ZM9.06952 326.29V326.79H9.56952V326.29H9.06952ZM9.06952 325.224H10.3835V324.224H9.06952V325.224ZM9.88352 324.724L9.88352 326.29H10.8835L10.8835 324.724H9.88352ZM10.3835 326.79H13.3535V325.79H10.3835V326.79ZM12.8535 326.29V327.892H13.8535V326.29H12.8535ZM13.3535 327.392H10.3835V328.392H13.3535V327.392ZM9.88352 327.892L9.88352 333.04H10.8835L10.8835 327.892H9.88352ZM10.3835 332.54H9.19552V333.54H10.3835V332.54ZM9.40019 332.584L1.33619 328.966L0.926841 329.878L8.99084 333.496L9.40019 332.584ZM1.59323 329.614L2.16923 328.228L1.2458 327.844L0.6698 329.23L1.59323 329.614ZM1.50517 328.493L8.86717 331.751L9.27186 330.837L1.90986 327.579L1.50517 328.493ZM9.56952 331.294L9.56952 327.874H8.56952L8.56952 331.294H9.56952ZM9.09172 327.374L5.85172 327.23L5.80732 328.229L9.04732 328.373L9.09172 327.374ZM6.32952 327.73V326.29H5.32952V327.73H6.32952ZM5.82952 326.79H9.06952V325.79H5.82952V326.79ZM9.56952 326.29L9.56952 324.724H8.56952L8.56952 326.29H9.56952ZM11.4275 313.138L11.074 312.784L11.074 312.784L11.4275 313.138ZM13.2095 313.138L13.5632 312.784L13.5543 312.776L13.2095 313.138ZM13.2095 314.92L13.5544 315.282L13.5631 315.273L13.2095 314.92ZM11.4275 314.92L11.074 315.273L11.074 315.273L11.4275 314.92ZM11.5675 314.038C11.5675 313.801 11.641 313.631 11.7811 313.491L11.074 312.784C10.7341 313.124 10.5675 313.554 10.5675 314.038H11.5675ZM11.7811 313.491C11.9247 313.348 12.0904 313.278 12.3095 313.278V312.278C11.8327 312.278 11.4104 312.448 11.074 312.784L11.7811 313.491ZM12.3095 313.278C12.5291 313.278 12.7057 313.348 12.8647 313.5L13.5543 312.776C13.2094 312.447 12.7859 312.278 12.3095 312.278V313.278ZM12.856 313.491C12.9961 313.631 13.0695 313.801 13.0695 314.038H14.0695C14.0695 313.554 13.903 313.124 13.5631 312.784L12.856 313.491ZM13.0695 314.038C13.0695 314.257 12.9996 314.423 12.856 314.566L13.5631 315.273C13.8995 314.937 14.0695 314.515 14.0695 314.038H13.0695ZM12.8647 314.558C12.7057 314.709 12.5291 314.78 12.3095 314.78V315.78C12.7859 315.78 13.2094 315.61 13.5543 315.282L12.8647 314.558ZM12.3095 314.78C12.0904 314.78 11.9247 314.71 11.7811 314.566L11.074 315.273C11.4104 315.61 11.8327 315.78 12.3095 315.78V314.78ZM11.7811 314.566C11.6375 314.423 11.5675 314.257 11.5675 314.038H10.5675C10.5675 314.515 10.7376 314.937 11.074 315.273L11.7811 314.566ZM2.73352 296.038L2.99982 296.462L3.00534 296.458L2.73352 296.038ZM11.9675 296.038L11.6978 296.459L11.7012 296.462L11.9675 296.038ZM11.9675 302.068L12.2338 302.492L12.2372 302.489L11.9675 302.068ZM2.73352 302.068L2.46385 302.489L2.46508 302.49L2.73352 302.068ZM3.59751 300.79L3.37389 301.238L3.37955 301.24L3.59751 300.79ZM11.1035 300.79L11.3188 301.242L11.3271 301.238L11.1035 300.79ZM11.1035 297.316L11.3271 296.869L11.3244 296.868L11.1035 297.316ZM3.61552 297.316L3.83636 297.765L3.83912 297.764L3.61552 297.316ZM1.63152 299.044C1.63152 297.873 2.08675 297.036 2.9998 296.462L2.46723 295.615C1.24428 296.385 0.631515 297.552 0.631515 299.044H1.63152ZM3.00534 296.458C3.94516 295.849 5.36904 295.512 7.34152 295.512V294.512C5.28199 294.512 3.63387 294.859 2.46169 295.619L3.00534 296.458ZM7.34152 295.512C9.31338 295.512 10.7448 295.849 11.6979 296.459L12.2372 295.617C11.0542 294.86 9.40165 294.512 7.34152 294.512V295.512ZM11.7012 296.462C12.6143 297.036 13.0695 297.873 13.0695 299.044H14.0695C14.0695 297.552 13.4568 296.385 12.2338 295.615L11.7012 296.462ZM13.0695 299.044C13.0695 300.216 12.6139 301.061 11.6979 301.647L12.2372 302.489C13.4572 301.708 14.0695 300.537 14.0695 299.044H13.0695ZM11.7012 301.645C10.7474 302.245 9.31452 302.576 7.34152 302.576L7.34152 303.576C9.40051 303.576 11.0516 303.235 12.2338 302.492L11.7012 301.645ZM7.34152 302.576C5.36791 302.576 3.94257 302.245 3.00195 301.647L2.46508 302.49C3.63646 303.236 5.28312 303.576 7.34152 303.576L7.34152 302.576ZM3.00318 301.647C2.08717 301.061 1.63152 300.216 1.63152 299.044H0.631515C0.631515 300.537 1.24386 301.708 2.46385 302.489L3.00318 301.647ZM1.94552 299.044C1.94552 299.52 2.06399 299.959 2.31617 300.341C2.56656 300.721 2.92941 301.015 3.37391 301.238L3.82112 300.343C3.49762 300.181 3.28447 299.993 3.15086 299.791C3.01904 299.591 2.94552 299.349 2.94552 299.044H1.94552ZM3.37955 301.24C4.25514 301.665 5.6 301.848 7.34152 301.848V300.848C5.62703 300.848 4.47589 300.66 3.81548 300.34L3.37955 301.24ZM7.34152 301.848C9.08405 301.848 10.4329 301.664 11.3188 301.242L10.8883 300.339C10.2142 300.661 9.05498 300.848 7.34152 300.848V301.848ZM11.3271 301.238C11.7716 301.015 12.1345 300.721 12.3849 300.341C12.637 299.959 12.7555 299.52 12.7555 299.044H11.7555C11.7555 299.349 11.682 299.591 11.5502 299.791C11.4166 299.993 11.2034 300.181 10.8799 300.343L11.3271 301.238ZM12.7555 299.044C12.7555 298.573 12.6362 298.138 12.3835 297.759C12.133 297.383 11.7704 297.091 11.3271 296.869L10.8799 297.764C11.2046 297.926 11.4181 298.114 11.5515 298.314C11.6828 298.511 11.7555 298.748 11.7555 299.044H12.7555ZM11.3244 296.868C10.4363 296.431 9.0849 296.24 7.34152 296.24V297.24C9.05413 297.24 10.2107 297.434 10.8827 297.765L11.3244 296.868ZM7.34152 296.24C5.6105 296.24 4.26937 296.43 3.39191 296.869L3.83912 297.764C4.49766 297.434 5.64053 297.24 7.34152 297.24V296.24ZM3.39467 296.868C2.94597 297.089 2.57842 297.38 2.32399 297.756C2.06718 298.135 1.94552 298.571 1.94552 299.044H2.94552C2.94552 298.75 3.01885 298.513 3.15204 298.317C3.28761 298.117 3.50506 297.928 3.83636 297.765L3.39467 296.868ZM2.60752 278.469H3.10752V278.051L2.69636 277.977L2.60752 278.469ZM2.60752 283.167H2.10752V283.667H2.60752V283.167ZM6.15352 283.167V283.667H6.96964L6.59897 282.94L6.15352 283.167ZM6.71152 278.757L7.04851 279.127L7.05174 279.124L6.71152 278.757ZM11.6255 278.343L11.8727 277.909L11.869 277.907L11.6255 278.343ZM13.0655 279.819L13.5058 279.582L13.5041 279.579L13.0655 279.819ZM13.1915 283.959L13.6461 284.168L13.6496 284.16L13.1915 283.959ZM12.0395 285.561L11.6827 285.912L12.032 286.267L12.3888 285.919L12.0395 285.561ZM11.0855 284.589L10.732 284.236L10.3817 284.586L10.7287 284.94L11.0855 284.589ZM11.9495 283.401L12.4021 283.614L12.407 283.603L11.9495 283.401ZM11.4995 280.215L11.16 280.582L11.165 280.587L11.4995 280.215ZM7.55752 280.143L7.20396 279.79L7.20396 279.79L7.55752 280.143ZM7.07152 282.609L7.55908 282.498L7.55671 282.488L7.5539 282.478L7.07152 282.609ZM7.37752 283.455H7.87752V283.342L7.82828 283.239L7.37752 283.455ZM7.37752 284.751V285.251H7.87752V284.751H7.37752ZM1.31152 284.751H0.811515V285.251H1.31152V284.751ZM1.31152 278.235L1.40036 277.743L0.811515 277.637V278.235H1.31152ZM2.10752 278.469L2.10752 283.167H3.10752L3.10752 278.469H2.10752ZM2.60752 283.667H6.15352V282.667H2.60752V283.667ZM6.59897 282.94C6.322 282.397 6.18552 281.833 6.18552 281.241H5.18552C5.18552 281.994 5.36103 282.714 5.70806 283.394L6.59897 282.94ZM6.18552 281.241C6.18552 280.332 6.48087 279.645 7.0485 279.127L6.37453 278.388C5.57416 279.118 5.18552 280.087 5.18552 281.241H6.18552ZM7.05174 279.124C7.60647 278.609 8.40124 278.321 9.50152 278.321V277.321C8.22579 277.321 7.16056 277.658 6.37129 278.391L7.05174 279.124ZM9.50152 278.321C10.2177 278.321 10.8403 278.478 11.382 278.78L11.869 277.907C11.1628 277.513 10.3693 277.321 9.50152 277.321V278.321ZM11.3784 278.778C11.9072 279.079 12.322 279.502 12.6269 280.059L13.5041 279.579C13.113 278.864 12.5678 278.304 11.8727 277.909L11.3784 278.778ZM12.6253 280.056C12.9159 280.596 13.0695 281.238 13.0695 281.997H14.0695C14.0695 281.101 13.8871 280.29 13.5058 279.582L12.6253 280.056ZM13.0695 281.997C13.0695 282.672 12.9536 283.256 12.7334 283.759L13.6496 284.16C13.9334 283.511 14.0695 282.787 14.0695 281.997H13.0695ZM12.737 283.751C12.5013 284.265 12.1552 284.75 11.6902 285.204L12.3888 285.919C12.9319 285.389 13.3537 284.805 13.646 284.168L12.737 283.751ZM12.3964 285.211L11.4424 284.239L10.7287 284.94L11.6827 285.912L12.3964 285.211ZM11.4391 284.943C11.8558 284.526 12.1809 284.084 12.4019 283.614L11.4971 283.188C11.3341 283.535 11.0832 283.884 10.732 284.236L11.4391 284.943ZM12.407 283.603C12.6191 283.122 12.7195 282.59 12.7195 282.015H11.7195C11.7195 282.473 11.6399 282.864 11.4921 283.199L12.407 283.603ZM12.7195 282.015C12.7195 281.135 12.4393 280.388 11.834 279.844L11.165 280.587C11.5197 280.906 11.7195 281.36 11.7195 282.015H12.7195ZM11.839 279.848C11.239 279.293 10.4238 279.049 9.46552 279.049V280.049C10.2592 280.049 10.8001 280.249 11.16 280.582L11.839 279.848ZM9.46552 279.049C8.52959 279.049 7.73496 279.259 7.20396 279.79L7.91107 280.497C8.17207 280.236 8.64944 280.049 9.46552 280.049V279.049ZM7.20396 279.79C6.69587 280.298 6.46352 280.969 6.46352 281.745H7.46352C7.46352 281.178 7.62716 280.781 7.91107 280.497L7.20396 279.79ZM6.46352 281.745C6.46352 282.096 6.50394 282.428 6.58913 282.741L7.5539 282.478C7.49509 282.262 7.46352 282.019 7.46352 281.745H6.46352ZM6.58395 282.72C6.65386 283.028 6.77011 283.345 6.92675 283.672L7.82828 283.239C7.69692 282.965 7.60917 282.719 7.55908 282.498L6.58395 282.72ZM6.87752 283.455V284.751H7.87752V283.455H6.87752ZM7.37752 284.251H1.31152L1.31152 285.251H7.37752V284.251ZM1.81152 284.751L1.81152 278.235H0.811515L0.811515 284.751H1.81152ZM1.22267 278.727L2.51867 278.961L2.69636 277.977L1.40036 277.743L1.22267 278.727ZM2.73352 260.984L2.99982 261.407L3.00534 261.403L2.73352 260.984ZM11.9675 260.984L11.6978 261.405L11.7012 261.407L11.9675 260.984ZM11.9675 267.014L12.2338 267.437L12.2372 267.435L11.9675 267.014ZM2.73352 267.014L2.46385 267.435L2.46508 267.436L2.73352 267.014ZM3.59751 265.736L3.37389 266.183L3.37955 266.186L3.59751 265.736ZM11.1035 265.736L11.3188 266.187L11.3271 266.183L11.1035 265.736ZM11.1035 262.262L11.3271 261.814L11.3244 261.813L11.1035 262.262ZM3.61552 262.262L3.83636 262.71L3.83912 262.709L3.61552 262.262ZM1.63152 263.99C1.63152 262.818 2.08675 261.981 2.9998 261.407L2.46723 260.561C1.24428 261.33 0.631515 262.497 0.631515 263.99H1.63152ZM3.00534 261.403C3.94516 260.795 5.36904 260.458 7.34152 260.458V259.458C5.28199 259.458 3.63387 259.805 2.46169 260.564L3.00534 261.403ZM7.34152 260.458C9.31338 260.458 10.7448 260.794 11.6979 261.405L12.2372 260.563C11.0542 259.805 9.40165 259.458 7.34152 259.458V260.458ZM11.7012 261.407C12.6143 261.981 13.0695 262.818 13.0695 263.99H14.0695C14.0695 262.497 13.4568 261.33 12.2338 260.561L11.7012 261.407ZM13.0695 263.99C13.0695 265.162 12.6139 266.006 11.6979 266.593L12.2372 267.435C13.4572 266.653 14.0695 265.482 14.0695 263.99H13.0695ZM11.7012 266.591C10.7474 267.191 9.31452 267.522 7.34152 267.522V268.522C9.40051 268.522 11.0516 268.181 12.2338 267.437L11.7012 266.591ZM7.34152 267.522C5.36791 267.522 3.94257 267.19 3.00195 266.592L2.46508 267.436C3.63646 268.181 5.28312 268.522 7.34152 268.522V267.522ZM3.00318 266.593C2.08717 266.006 1.63152 265.162 1.63152 263.99H0.631515C0.631515 265.482 1.24386 266.653 2.46385 267.435L3.00318 266.593ZM1.94552 263.99C1.94552 264.466 2.06399 264.904 2.31617 265.287C2.56656 265.666 2.92941 265.961 3.37391 266.183L3.82112 265.289C3.49762 265.127 3.28447 264.938 3.15086 264.736C3.01904 264.536 2.94552 264.294 2.94552 263.99H1.94552ZM3.37955 266.186C4.25514 266.61 5.6 266.794 7.34152 266.794V265.794C5.62703 265.794 4.47589 265.606 3.81548 265.286L3.37955 266.186ZM7.34152 266.794C9.08405 266.794 10.4329 266.61 11.3188 266.187L10.8883 265.284C10.2142 265.606 9.05498 265.794 7.34152 265.794V266.794ZM11.3271 266.183C11.7716 265.961 12.1345 265.666 12.3849 265.287C12.637 264.904 12.7555 264.466 12.7555 263.99H11.7555C11.7555 264.294 11.682 264.536 11.5502 264.736C11.4166 264.938 11.2034 265.127 10.8799 265.289L11.3271 266.183ZM12.7555 263.99C12.7555 263.518 12.6362 263.083 12.3835 262.704C12.133 262.329 11.7704 262.036 11.3271 261.815L10.8799 262.709C11.2046 262.871 11.4181 263.059 11.5515 263.259C11.6828 263.456 11.7555 263.693 11.7555 263.99H12.7555ZM11.3244 261.813C10.4363 261.376 9.0849 261.186 7.34152 261.186V262.186C9.05413 262.186 10.2107 262.379 10.8827 262.71L11.3244 261.813ZM7.34152 261.186C5.6105 261.186 4.26937 261.376 3.39191 261.815L3.83912 262.709C4.49766 262.38 5.64053 262.186 7.34152 262.186V261.186ZM3.39467 261.813C2.94597 262.034 2.57842 262.326 2.32399 262.701C2.06718 263.081 1.94552 263.517 1.94552 263.99H2.94552C2.94552 263.695 3.01885 263.459 3.15204 263.262C3.28761 263.062 3.50506 262.873 3.83636 262.71L3.39467 261.813ZM1.31152 245.161L1.31152 244.661H0.811515L0.811515 245.161H1.31152ZM13.3535 245.161H13.8535V244.661H13.3535V245.161ZM13.3535 246.817V247.317H13.8535V246.817H13.3535ZM3.07551 246.817V246.317H2.18561L2.64847 247.077L3.07551 246.817ZM4.78552 249.625L5.04756 250.05L5.47141 249.79L5.21256 249.365L4.78552 249.625ZM3.61552 250.345L3.19025 250.608L3.45265 251.032L3.87756 250.77L3.61552 250.345ZM1.31152 246.619H0.811515V246.761L0.886251 246.882L1.31152 246.619ZM1.31152 245.661H13.3535V244.661H1.31152L1.31152 245.661ZM12.8535 245.161V246.817H13.8535V245.161H12.8535ZM13.3535 246.317H3.07551V247.317H13.3535V246.317ZM2.64847 247.077L4.35847 249.885L5.21256 249.365L3.50256 246.557L2.64847 247.077ZM4.52347 249.199L3.35347 249.919L3.87756 250.77L5.04756 250.05L4.52347 249.199ZM4.04078 250.082L1.73678 246.356L0.886251 246.882L3.19025 250.608L4.04078 250.082ZM1.81152 246.619V245.161H0.811515V246.619H1.81152ZM13.3535 203.93H13.8535V203.43H13.3535V203.93ZM13.3535 206.216L13.5694 206.667L13.8535 206.531V206.216H13.3535ZM2.82351 211.256L2.60765 210.805L2.86683 211.754L2.82351 211.256ZM5.12752 211.094L5.15291 211.593L5.16192 211.593L5.12752 211.094ZM13.3535 211.022H13.8535V210.522H13.3535V211.022ZM13.3535 212.624V213.124H13.8535V212.624H13.3535ZM0.951515 212.624H0.451515V213.124H0.951515V212.624ZM0.951515 210.392L0.734076 209.942L0.451515 210.078V210.392H0.951515ZM11.4995 205.298L11.717 205.748L11.4422 204.801L11.4995 205.298ZM0.951515 205.532H0.451515V206.032H0.951515V205.532ZM0.951515 203.93V203.43H0.451515V203.93H0.951515ZM12.8535 203.93V206.216H13.8535V203.93H12.8535ZM13.1377 205.765L2.60765 210.805L3.03938 211.707L13.5694 206.667L13.1377 205.765ZM2.86683 211.754C3.68985 211.682 4.4518 211.629 5.15291 211.593L5.10212 210.594C4.38723 210.631 3.61318 210.685 2.7802 210.758L2.86683 211.754ZM5.16192 211.593C5.84278 211.546 6.67659 211.522 7.66552 211.522V210.522C6.66244 210.522 5.80425 210.546 5.09311 210.595L5.16192 211.593ZM7.66552 211.522H13.3535V210.522H7.66552V211.522ZM12.8535 211.022V212.624H13.8535V211.022H12.8535ZM13.3535 212.124H0.951515V213.124H13.3535V212.124ZM1.45152 212.624L1.45152 210.392H0.451515L0.451515 212.624H1.45152ZM1.16895 210.842L11.717 205.748L11.2821 204.848L0.734076 209.942L1.16895 210.842ZM11.4422 204.801C11.1408 204.836 10.6034 204.883 9.82317 204.943L9.89986 205.94C10.6796 205.88 11.2343 205.832 11.5568 205.795L11.4422 204.801ZM9.82317 204.943C9.05342 205.003 8.35243 205.032 7.71952 205.032V206.032C8.38261 206.032 9.10962 206.001 9.89986 205.94L9.82317 204.943ZM7.71952 205.032H0.951515L0.951515 206.032H7.71952V205.032ZM1.45152 205.532L1.45152 203.93H0.451515L0.451515 205.532H1.45152ZM0.951515 204.43H13.3535V203.43H0.951515V204.43ZM8.42152 180.293V180.793H8.92152V180.293H8.42152ZM7.01752 180.293H6.51752V180.793H7.01752V180.293ZM7.01752 175.199V174.699H6.51752V175.199H7.01752ZM8.42152 175.199H8.92152V174.699H8.42152V175.199ZM8.42152 179.793H7.01752V180.793H8.42152V179.793ZM7.51752 180.293L7.51752 175.199H6.51752L6.51752 180.293H7.51752ZM7.01752 175.699H8.42152V174.699H7.01752V175.699ZM7.92152 175.199L7.92152 180.293H8.92152L8.92152 175.199H7.92152ZM1.31152 161.565V161.065H0.811515V161.565H1.31152ZM13.3535 161.565H13.8535V161.065H13.3535V161.565ZM13.3535 163.221V163.721H13.8535V163.221H13.3535ZM3.07551 163.221L3.07551 162.721H2.18561L2.64847 163.481L3.07551 163.221ZM4.78552 166.029L5.04756 166.455L5.47141 166.194L5.21256 165.769L4.78552 166.029ZM3.61552 166.749L3.19025 167.012L3.45265 167.436L3.87756 167.175L3.61552 166.749ZM1.31152 163.023H0.811515V163.165L0.886251 163.286L1.31152 163.023ZM1.31152 162.065H13.3535V161.065H1.31152V162.065ZM12.8535 161.565V163.221H13.8535V161.565H12.8535ZM13.3535 162.721H3.07551L3.07551 163.721H13.3535V162.721ZM2.64847 163.481L4.35847 166.289L5.21256 165.769L3.50256 162.961L2.64847 163.481ZM4.52347 165.603L3.35347 166.323L3.87756 167.175L5.04756 166.455L4.52347 165.603ZM4.04078 166.486L1.73678 162.76L0.886251 163.286L3.19025 167.012L4.04078 166.486ZM1.81152 163.023L1.81152 161.565H0.811515L0.811515 163.023H1.81152ZM1.31152 146.024L1.31152 145.524H0.811515L0.811515 146.024H1.31152ZM13.3535 146.024H13.8535V145.524H13.3535V146.024ZM13.3535 147.68V148.18H13.8535V147.68H13.3535ZM3.07551 147.68V147.18H2.18561L2.64847 147.94L3.07551 147.68ZM4.78552 150.488L5.04756 150.914L5.47141 150.653L5.21256 150.228L4.78552 150.488ZM3.61552 151.208L3.19025 151.471L3.45265 151.895L3.87756 151.634L3.61552 151.208ZM1.31152 147.482H0.811515V147.624L0.886251 147.745L1.31152 147.482ZM1.31152 146.524H13.3535V145.524H1.31152L1.31152 146.524ZM12.8535 146.024V147.68H13.8535V146.024H12.8535ZM13.3535 147.18H3.07551V148.18H13.3535V147.18ZM2.64847 147.94L4.35847 150.748L5.21256 150.228L3.50256 147.42L2.64847 147.94ZM4.52347 150.062L3.35347 150.782L3.87756 151.634L5.04756 150.914L4.52347 150.062ZM4.04078 150.945L1.73678 147.219L0.886251 147.745L3.19025 151.471L4.04078 150.945ZM1.81152 147.482V146.024H0.811515V147.482H1.81152ZM6.89152 129.481L6.4443 129.704L6.93981 130.695L7.35507 129.668L6.89152 129.481ZM11.9135 127.483L11.6318 127.896L11.6339 127.897L11.9135 127.483ZM13.1375 128.959L13.593 128.753L13.5897 128.745L13.1375 128.959ZM13.1375 133.279L12.6835 133.069L12.6835 133.069L13.1375 133.279ZM11.9315 134.737L12.2044 135.156L12.2111 135.151L11.9315 134.737ZM8.29552 134.647L7.98088 135.035L7.9866 135.04L8.29552 134.647ZM7.03552 132.865L7.49472 132.667L7.0734 131.689L6.59 132.638L7.03552 132.865ZM5.86552 134.287L6.13535 134.708L6.14167 134.704L6.14786 134.699L5.86552 134.287ZM2.55352 134.233L2.25512 134.634L2.26191 134.639L2.55352 134.233ZM1.49151 132.883L1.03142 133.079L1.03298 133.082L1.49151 132.883ZM1.47352 129.319L1.93566 129.51L1.93707 129.506L1.47352 129.319ZM2.51751 127.951L2.81589 128.352L2.82085 128.348L2.51751 127.951ZM5.72152 127.933L6.02849 127.538L6.02849 127.538L5.72152 127.933ZM2.85952 132.577L2.48242 132.905L2.48787 132.911L2.85952 132.577ZM5.55952 132.595L5.93827 132.921L5.94363 132.915L5.55952 132.595ZM6.38752 130.885L5.91585 130.718L5.91173 130.731L6.38752 130.885ZM6.49552 130.579L6.96701 130.745L7.04365 130.528L6.92845 130.329L6.49552 130.579ZM2.87752 129.589L3.23727 129.936L3.24304 129.93L2.87752 129.589ZM11.6795 129.337L11.3013 129.664L11.3058 129.669L11.6795 129.337ZM9.06952 128.923L9.31385 129.359L9.32145 129.355L9.06952 128.923ZM8.29552 129.733L8.72194 129.994L8.72791 129.984L8.29552 129.733ZM7.61152 131.299L8.08204 131.468L8.085 131.459L7.61152 131.299ZM7.44952 131.749L6.97907 131.579L6.90816 131.776L6.99875 131.965L7.44952 131.749ZM8.54752 133.081L8.82489 132.665L8.81961 132.661L8.54752 133.081ZM11.7155 132.865L12.0944 133.191L12.0996 133.185L11.7155 132.865ZM7.35507 129.668C7.67475 128.877 8.07084 128.325 8.52285 127.971C8.96798 127.622 9.49624 127.443 10.1315 127.443V126.443C9.29079 126.443 8.54105 126.686 7.90618 127.184C7.27819 127.676 6.79228 128.392 6.42796 129.293L7.35507 129.668ZM10.1315 127.443C10.6945 127.443 11.1897 127.594 11.6318 127.896L12.1952 127.07C11.5813 126.651 10.8885 126.443 10.1315 126.443V127.443ZM11.6339 127.897C12.066 128.189 12.4186 128.607 12.6853 129.172L13.5897 128.745C13.2564 128.039 12.793 127.473 12.1931 127.068L11.6339 127.897ZM12.682 129.165C12.9366 129.727 13.0695 130.375 13.0695 131.119H14.0695C14.0695 130.254 13.9145 129.462 13.593 128.753L12.682 129.165ZM13.0695 131.119C13.0695 131.876 12.9361 132.522 12.6835 133.069L13.5915 133.488C13.915 132.787 14.0695 131.994 14.0695 131.119H13.0695ZM12.6835 133.069C12.4297 133.619 12.0844 134.031 11.6519 134.322L12.2111 135.151C12.8106 134.747 13.2693 134.186 13.5915 133.488L12.6835 133.069ZM11.6587 134.318C11.2298 134.597 10.7379 134.741 10.1675 134.741V135.741C10.9171 135.741 11.6013 135.548 12.2044 135.156L11.6587 134.318ZM10.1675 134.741C9.51673 134.741 9.0066 134.57 8.60443 134.254L7.9866 135.04C8.59243 135.516 9.3303 135.741 10.1675 135.741V134.741ZM8.61011 134.258C8.18551 133.914 7.80826 133.395 7.49472 132.667L6.57631 133.063C6.93477 133.895 7.39752 134.563 7.98092 135.035L8.61011 134.258ZM6.59 132.638C6.2932 133.22 5.95283 133.621 5.58317 133.874L6.14786 134.699C6.6902 134.328 7.12983 133.781 7.48104 133.092L6.59 132.638ZM5.59568 133.866C5.21782 134.108 4.76795 134.237 4.22752 134.237L4.22752 135.237C4.93509 135.237 5.57721 135.065 6.13535 134.708L5.59568 133.866ZM4.22752 134.237C3.67052 134.237 3.2177 134.094 2.84512 133.827L2.26191 134.639C2.82533 135.043 3.48851 135.237 4.22752 135.237L4.22752 134.237ZM2.85187 133.832C2.45629 133.537 2.15638 133.158 1.95005 132.683L1.03298 133.082C1.30665 133.712 1.71473 134.232 2.25516 134.634L2.85187 133.832ZM1.95159 132.687C1.73893 132.187 1.63152 131.654 1.63152 131.083H0.631515C0.631515 131.783 0.7641 132.45 1.03144 133.079L1.95159 132.687ZM1.63152 131.083C1.63152 130.521 1.73376 129.998 1.93565 129.51L1.01138 129.128C0.757266 129.743 0.631515 130.396 0.631515 131.083H1.63152ZM1.93707 129.506C2.13222 129.023 2.42477 128.643 2.81587 128.352L2.21916 127.55C1.67426 127.955 1.27081 128.486 1.00996 129.131L1.93707 129.506ZM2.82085 128.348C3.17855 128.075 3.62021 127.929 4.17351 127.929V126.929C3.43082 126.929 2.76848 127.13 2.21418 127.553L2.82085 128.348ZM4.17351 127.929C4.67369 127.929 5.07888 128.066 5.41454 128.327L6.02849 127.538C5.50015 127.127 4.87334 126.929 4.17351 126.929V127.929ZM5.41454 128.327C5.76816 128.602 6.11657 129.049 6.4443 129.704L7.33873 129.257C6.97046 128.521 6.53887 127.935 6.02849 127.538L5.41454 128.327ZM1.87352 131.083C1.87352 131.795 2.05993 132.42 2.48247 132.905L3.23656 132.248C3.0111 131.99 2.87352 131.619 2.87352 131.083H1.87352ZM2.48787 132.911C2.92862 133.401 3.54025 133.617 4.24551 133.617V132.617C3.75078 132.617 3.43841 132.473 3.23116 132.242L2.48787 132.911ZM4.24551 133.617C4.92709 133.617 5.51996 133.406 5.93822 132.921L5.18081 132.268C4.99907 132.479 4.71594 132.617 4.24551 132.617V133.617ZM5.94363 132.915C6.30431 132.482 6.60414 131.841 6.8633 131.038L5.91173 130.731C5.66689 131.489 5.41472 131.988 5.1754 132.275L5.94363 132.915ZM6.85901 131.051L6.96701 130.745L6.02402 130.412L5.91602 130.718L6.85901 131.051ZM6.92845 130.329C6.59554 129.752 6.22041 129.294 5.78938 128.997L5.22165 129.82C5.48662 130.003 5.77149 130.325 6.06258 130.829L6.92845 130.329ZM5.78938 128.997C5.34291 128.689 4.81302 128.549 4.22752 128.549L4.22752 129.549C4.65001 129.549 4.97212 129.648 5.22165 129.82L5.78938 128.997ZM4.22752 128.549C3.54704 128.549 2.95665 128.771 2.51199 129.248L3.24304 129.93C3.47038 129.686 3.77999 129.549 4.22752 129.549L4.22752 128.549ZM2.51781 129.241C2.0647 129.711 1.87352 130.35 1.87352 131.083H2.87352C2.87352 130.519 3.01833 130.163 3.23722 129.936L2.51781 129.241ZM12.7555 131.101C12.7555 130.27 12.5398 129.552 12.0532 129.005L11.3058 129.669C11.5873 129.986 11.7555 130.443 11.7555 131.101H12.7555ZM12.0577 129.01C11.5701 128.446 10.917 128.171 10.1495 128.171V129.171C10.654 129.171 11.0209 129.34 11.3013 129.664L12.0577 129.01ZM10.1495 128.171C9.65457 128.171 9.20147 128.267 8.81758 128.491L9.32145 129.355C9.51356 129.243 9.78046 129.171 10.1495 129.171V128.171ZM8.82521 128.487C8.42969 128.708 8.11292 129.052 7.86312 129.482L8.72791 129.984C8.91011 129.67 9.10934 129.474 9.31382 129.359L8.82521 128.487ZM7.86921 129.472C7.61356 129.889 7.37153 130.45 7.13803 131.138L8.085 131.459C8.3075 130.804 8.52147 130.321 8.72182 129.994L7.86921 129.472ZM7.14107 131.129L6.97907 131.579L7.91996 131.918L8.08196 131.468L7.14107 131.129ZM6.99875 131.965C7.31637 132.627 7.73678 133.151 8.27542 133.5L8.81961 132.661C8.47025 132.435 8.15867 132.071 7.90028 131.532L6.99875 131.965ZM8.27017 133.497C8.80258 133.852 9.44535 134.013 10.1675 134.013L10.1675 133.013C9.59369 133.013 9.15645 132.886 8.82487 132.665L8.27017 133.497ZM10.1675 134.013C10.9476 134.013 11.612 133.751 12.0944 133.191L11.3366 132.539C11.0751 132.842 10.7074 133.013 10.1675 133.013L10.1675 134.013ZM12.0996 133.185C12.5557 132.638 12.7555 131.924 12.7555 131.101H11.7555C11.7555 131.766 11.5953 132.228 11.3314 132.545L12.0996 133.185ZM11.4275 115.095L11.074 114.741L11.074 114.741L11.4275 115.095ZM13.2095 115.095L13.5632 114.741L13.5543 114.733L13.2095 115.095ZM13.2095 116.877L13.5544 117.239L13.5631 117.23L13.2095 116.877ZM11.4275 116.877L11.074 117.23L11.074 117.23L11.4275 116.877ZM11.5675 115.995C11.5675 115.758 11.641 115.588 11.7811 115.448L11.074 114.741C10.7341 115.081 10.5675 115.511 10.5675 115.995H11.5675ZM11.7811 115.448C11.9247 115.305 12.0904 115.235 12.3095 115.235V114.235C11.8327 114.235 11.4104 114.405 11.074 114.741L11.7811 115.448ZM12.3095 115.235C12.5291 115.235 12.7057 115.305 12.8647 115.457L13.5543 114.733C13.2094 114.404 12.7859 114.235 12.3095 114.235V115.235ZM12.856 115.448C12.9961 115.588 13.0695 115.758 13.0695 115.995H14.0695C14.0695 115.511 13.903 115.081 13.5631 114.741L12.856 115.448ZM13.0695 115.995C13.0695 116.214 12.9996 116.38 12.856 116.523L13.5631 117.23C13.8995 116.894 14.0695 116.472 14.0695 115.995H13.0695ZM12.8647 116.515C12.7057 116.666 12.5291 116.737 12.3095 116.737V117.737C12.7859 117.737 13.2094 117.567 13.5543 117.239L12.8647 116.515ZM12.3095 116.737C12.0904 116.737 11.9247 116.667 11.7811 116.523L11.074 117.23C11.4104 117.567 11.8327 117.737 12.3095 117.737V116.737ZM11.7811 116.523C11.6375 116.38 11.5675 116.214 11.5675 115.995H10.5675C10.5675 116.472 10.7376 116.894 11.074 117.23L11.7811 116.523ZM1.56352 99.8185L2.00471 100.054L2.00681 100.05L1.56352 99.8185ZM2.75151 98.5405L3.00727 98.9702L3.01182 98.9674L2.75151 98.5405ZM6.53152 98.5945L6.30789 99.0418L6.31437 99.0449L6.53152 98.5945ZM8.70952 100.106L8.37985 100.482L8.37985 100.482L8.70952 100.106ZM11.9675 103.22L11.614 103.574L12.4675 104.428V103.22H11.9675ZM11.9675 97.8025L12.0382 97.3075L11.4675 97.226V97.8025H11.9675ZM13.3535 98.0005H13.8535V97.5669L13.4242 97.5055L13.3535 98.0005ZM13.3535 105.11V105.61H13.8535V105.11H13.3535ZM12.0395 105.11L11.6925 105.47L11.8378 105.61H12.0395V105.11ZM8.38552 101.69L8.71478 101.314L8.71187 101.312L8.38552 101.69ZM6.35152 100.25L6.12791 100.698L6.12791 100.698L6.35152 100.25ZM3.03952 100.358L3.39312 100.712L3.39901 100.706L3.03952 100.358ZM3.81352 104.282L4.20395 104.595L4.49908 104.226L4.14747 103.91L3.81352 104.282ZM2.94952 105.362L2.63624 105.752L3.02686 106.066L3.33995 105.675L2.94952 105.362ZM1.58151 103.724L1.1343 103.948L1.1343 103.948L1.58151 103.724ZM1.63152 101.708C1.63152 101.056 1.7616 100.51 2.00469 100.054L1.12234 99.5832C0.789429 100.207 0.631515 100.921 0.631515 101.708H1.63152ZM2.00681 100.05C2.25466 99.5747 2.58793 99.2197 3.00726 98.9701L2.49577 98.1109C1.9071 98.4613 1.44837 98.9583 1.12022 99.5872L2.00681 100.05ZM3.01182 98.9674C3.41894 98.7192 3.88546 98.5905 4.42552 98.5905V97.5905C3.71757 97.5905 3.06809 97.7618 2.49121 98.1136L3.01182 98.9674ZM4.42552 98.5905C5.0778 98.5905 5.70344 98.7395 6.30791 99.0417L6.75512 98.1473C6.01559 97.7775 5.23723 97.5905 4.42552 97.5905V98.5905ZM6.31437 99.0449C6.93329 99.3433 7.62165 99.8175 8.37985 100.482L9.03918 99.7306C8.23738 99.0275 7.47374 98.4937 6.74867 98.1441L6.31437 99.0449ZM8.37985 100.482C9.14735 101.155 10.2242 102.184 11.614 103.574L12.3211 102.867C10.9269 101.473 9.83168 100.426 9.03918 99.7306L8.37985 100.482ZM12.4675 103.22V97.8025H11.4675L11.4675 103.22H12.4675ZM11.8968 98.2975L13.2828 98.4955L13.4242 97.5055L12.0382 97.3075L11.8968 98.2975ZM12.8535 98.0005V105.11H13.8535V98.0005H12.8535ZM13.3535 104.61H12.0395L12.0395 105.61H13.3535V104.61ZM12.3865 104.751C10.7181 103.142 9.49261 101.995 8.71477 101.314L8.05626 102.067C8.81442 102.73 10.0249 103.863 11.6925 105.47L12.3865 104.751ZM8.71187 101.312C7.91684 100.627 7.2033 100.117 6.57512 99.8033L6.12791 100.698C6.65173 100.96 7.29419 101.41 8.05916 102.069L8.71187 101.312ZM6.57512 99.8033C5.92793 99.4797 5.23314 99.3185 4.49752 99.3185V100.318C5.08189 100.318 5.6231 100.445 6.12791 100.698L6.57512 99.8033ZM4.49752 99.3185C3.77345 99.3185 3.14433 99.5307 2.68002 100.011L3.39901 100.706C3.6307 100.466 3.97358 100.318 4.49752 100.318V99.3185ZM2.68596 100.005C2.21559 100.475 1.99951 101.091 1.99951 101.798H2.99951C2.99951 101.306 3.14344 100.962 3.39307 100.712L2.68596 100.005ZM1.99951 101.798C1.99951 102.361 2.11666 102.878 2.36711 103.335L3.24392 102.854C3.08637 102.567 2.99951 102.22 2.99951 101.798H1.99951ZM2.36711 103.335C2.60796 103.774 2.98784 104.213 3.47956 104.655L4.14747 103.91C3.70319 103.512 3.41107 103.159 3.24392 102.854L2.36711 103.335ZM3.42308 103.97L2.55908 105.05L3.33995 105.675L4.20395 104.595L3.42308 103.97ZM3.26279 104.973C2.69738 104.518 2.29152 104.026 2.02873 103.501L1.1343 103.948C1.47151 104.623 1.97765 105.223 2.63624 105.752L3.26279 104.973ZM2.02873 103.501C1.76709 102.978 1.63152 102.383 1.63152 101.708H0.631515C0.631515 102.522 0.795944 103.271 1.1343 103.948L2.02873 103.501ZM9.06952 80.3566V79.8566H8.56952V80.3566H9.06952ZM10.3835 80.3566H10.8835V79.8566H10.3835V80.3566ZM10.3835 81.9226H9.88352L9.88352 82.4226H10.3835L10.3835 81.9226ZM13.3535 81.9226H13.8535V81.4226H13.3535V81.9226ZM13.3535 83.5246V84.0246H13.8535V83.5246H13.3535ZM10.3835 83.5246V83.0246H9.88352V83.5246H10.3835ZM10.3835 88.6726V89.1726H10.8835V88.6726H10.3835ZM9.19552 88.6726L8.99084 89.1288L9.08849 89.1726H9.19552V88.6726ZM1.13152 85.0546L0.6698 84.8627L0.483193 85.3117L0.926841 85.5108L1.13152 85.0546ZM1.70752 83.6686L1.90986 83.2113L1.4421 83.0043L1.2458 83.4767L1.70752 83.6686ZM9.06952 86.9266L8.86717 87.3838L9.56952 87.6946V86.9266H9.06952ZM9.06952 83.5066H9.56952V83.0283L9.09172 83.0071L9.06952 83.5066ZM5.82952 83.3626H5.32952V83.8408L5.80732 83.8621L5.82952 83.3626ZM5.82952 81.9226V81.4226H5.32952V81.9226H5.82952ZM9.06952 81.9226L9.06952 82.4226H9.56952L9.56952 81.9226H9.06952ZM9.06952 80.8566H10.3835V79.8566H9.06952V80.8566ZM9.88352 80.3566V81.9226H10.8835V80.3566H9.88352ZM10.3835 82.4226H13.3535V81.4226H10.3835L10.3835 82.4226ZM12.8535 81.9226V83.5246H13.8535V81.9226H12.8535ZM13.3535 83.0246H10.3835V84.0246H13.3535V83.0246ZM9.88352 83.5246L9.88352 88.6726H10.8835L10.8835 83.5246H9.88352ZM10.3835 88.1726H9.19552V89.1726H10.3835V88.1726ZM9.40019 88.2164L1.33619 84.5984L0.926841 85.5108L8.99084 89.1288L9.40019 88.2164ZM1.59323 85.2465L2.16923 83.8605L1.2458 83.4767L0.6698 84.8627L1.59323 85.2465ZM1.50517 84.1258L8.86717 87.3838L9.27186 86.4694L1.90986 83.2113L1.50517 84.1258ZM9.56952 86.9266V83.5066H8.56952V86.9266H9.56952ZM9.09172 83.0071L5.85172 82.8631L5.80732 83.8621L9.04732 84.0061L9.09172 83.0071ZM6.32952 83.3626L6.32952 81.9226H5.32952L5.32952 83.3626H6.32952ZM5.82952 82.4226H9.06952L9.06952 81.4226H5.82952L5.82952 82.4226ZM9.56952 81.9226V80.3566H8.56952V81.9226H9.56952ZM9.06952 62.7765V62.2765H8.56952V62.7765H9.06952ZM10.3835 62.7765H10.8835V62.2765H10.3835V62.7765ZM10.3835 64.3425H9.88352V64.8425H10.3835V64.3425ZM13.3535 64.3425H13.8535V63.8425H13.3535V64.3425ZM13.3535 65.9445V66.4445H13.8535V65.9445H13.3535ZM10.3835 65.9445V65.4445H9.88352V65.9445H10.3835ZM10.3835 71.0925V71.5925H10.8835V71.0925H10.3835ZM9.19552 71.0925L8.99084 71.5487L9.08849 71.5925H9.19552V71.0925ZM1.13152 67.4745L0.6698 67.2826L0.483193 67.7316L0.926841 67.9307L1.13152 67.4745ZM1.70752 66.0885L1.90986 65.6313L1.4421 65.4243L1.2458 65.8966L1.70752 66.0885ZM9.06952 69.3465L8.86717 69.8037L9.56952 70.1145V69.3465H9.06952ZM9.06952 65.9265H9.56952V65.4482L9.09172 65.427L9.06952 65.9265ZM5.82952 65.7825H5.32952V66.2608L5.80732 66.282L5.82952 65.7825ZM5.82952 64.3425V63.8425H5.32952V64.3425H5.82952ZM9.06952 64.3425V64.8425H9.56952V64.3425H9.06952ZM9.06952 63.2765H10.3835V62.2765H9.06952V63.2765ZM9.88352 62.7765V64.3425H10.8835V62.7765H9.88352ZM10.3835 64.8425H13.3535V63.8425H10.3835V64.8425ZM12.8535 64.3425V65.9445H13.8535V64.3425H12.8535ZM13.3535 65.4445H10.3835V66.4445H13.3535V65.4445ZM9.88352 65.9445L9.88352 71.0925H10.8835L10.8835 65.9445H9.88352ZM10.3835 70.5925H9.19552L9.19552 71.5925H10.3835L10.3835 70.5925ZM9.40019 70.6363L1.33619 67.0183L0.926841 67.9307L8.99084 71.5487L9.40019 70.6363ZM1.59323 67.6664L2.16923 66.2804L1.2458 65.8966L0.6698 67.2826L1.59323 67.6664ZM1.50517 66.5457L8.86717 69.8037L9.27186 68.8893L1.90986 65.6313L1.50517 66.5457ZM9.56952 69.3465V65.9265H8.56952V69.3465H9.56952ZM9.09172 65.427L5.85172 65.283L5.80732 66.282L9.04732 66.426L9.09172 65.427ZM6.32952 65.7825L6.32952 64.3425H5.32952L5.32952 65.7825H6.32952ZM5.82952 64.8425H9.06952V63.8425H5.82952V64.8425ZM9.56952 64.3425V62.7765H8.56952V64.3425H9.56952ZM5.86552 47.0144L6.29964 47.2625L6.29964 47.2625L5.86552 47.0144ZM11.5355 45.8804L11.3023 46.3227L11.3054 46.3243L11.5355 45.8804ZM13.0475 47.2664L13.4755 47.0079L13.4739 47.0053L13.0475 47.2664ZM12.0215 52.2704L12.2852 52.6952L12.2874 52.6939L12.0215 52.2704ZM4.26352 52.7024L4.08857 53.1708L4.09172 53.172L4.26352 52.7024ZM1.95952 51.1184L2.35198 50.8086L2.34861 50.8044L1.95952 51.1184ZM1.86952 46.2044L2.12364 45.7738L1.71451 45.5324L1.45246 45.9286L1.86952 46.2044ZM2.96752 46.8524L3.39303 47.115L3.66081 46.681L3.22164 46.4218L2.96752 46.8524ZM3.68752 50.7584L3.94749 50.3313L3.94749 50.3313L3.68752 50.7584ZM7.01752 51.5864L7.00028 52.0861L8.67696 52.1439L7.30549 51.1777L7.01752 51.5864ZM7.19752 50.4344L7.61707 50.1623L7.61181 50.1545L7.19752 50.4344ZM8.40352 51.5684L8.14481 51.9963L8.27042 52.0722L8.41715 52.0682L8.40352 51.5684ZM11.3195 50.9564L11.5756 51.3859L11.5816 51.3823L11.3195 50.9564ZM5.93352 48.6884C5.93352 48.1585 6.05718 47.6868 6.29964 47.2625L5.43139 46.7664C5.09785 47.35 4.93352 47.9943 4.93352 48.6884H5.93352ZM6.29964 47.2625C6.53454 46.8514 6.8911 46.513 7.39248 46.2519L6.93055 45.365C6.27993 45.7038 5.77249 46.1694 5.43139 46.7664L6.29964 47.2625ZM7.39248 46.2519C7.88025 45.9978 8.49841 45.8584 9.26752 45.8584V44.8584C8.38062 44.8584 7.59479 45.019 6.93055 45.365L7.39248 46.2519ZM9.26752 45.8584C10.0499 45.8584 10.7238 46.0177 11.3023 46.3227L11.7687 45.4381C11.0272 45.0472 10.1892 44.8584 9.26752 44.8584V45.8584ZM11.3054 46.3243C11.8775 46.6209 12.3115 47.0218 12.6211 47.5275L13.4739 47.0053C13.0636 46.3351 12.4896 45.8119 11.7657 45.4365L11.3054 46.3243ZM12.6196 47.525C12.9179 48.0188 13.0695 48.5706 13.0695 49.1924H14.0695C14.0695 48.3982 13.8731 47.666 13.4755 47.0079L12.6196 47.525ZM13.0695 49.1924C13.0695 50.4552 12.6176 51.3057 11.7556 51.847L12.2874 52.6939C13.4894 51.9391 14.0695 50.7376 14.0695 49.1924H13.0695ZM11.7578 51.8456C10.8229 52.4259 9.4873 52.7424 7.70152 52.7424V53.7424C9.58773 53.7424 11.1321 53.411 12.2852 52.6952L11.7578 51.8456ZM7.70152 52.7424C6.43814 52.7424 5.35251 52.5684 4.43531 52.2329L4.09172 53.172C5.14252 53.5564 6.34889 53.7424 7.70152 53.7424V52.7424ZM4.43846 52.234C3.50925 51.887 2.82403 51.4066 2.35196 50.8086L1.56707 51.4282C2.175 52.1983 3.02578 52.7739 4.08857 53.1708L4.43846 52.234ZM2.34861 50.8044C1.87323 50.2153 1.63152 49.5181 1.63152 48.6884H0.631515C0.631515 49.7307 0.941803 50.6535 1.57042 51.4324L2.34861 50.8044ZM1.63152 48.6884C1.63152 47.8722 1.84995 47.1405 2.28657 46.4802L1.45246 45.9286C0.905084 46.7564 0.631515 47.6807 0.631515 48.6884H1.63152ZM1.61539 46.635L2.71339 47.283L3.22164 46.4218L2.12364 45.7738L1.61539 46.635ZM2.542 46.5899C2.14459 47.2339 1.94552 47.9431 1.94552 48.7064H2.94552C2.94552 48.1258 3.09444 47.5989 3.39303 47.115L2.542 46.5899ZM1.94552 48.7064C1.94552 49.7689 2.47217 50.604 3.42754 51.1855L3.94749 50.3313C3.24686 49.9049 2.94552 49.372 2.94552 48.7064H1.94552ZM3.42754 51.1855C4.35402 51.7495 5.55768 52.0364 7.00028 52.0861L7.03475 51.0867C5.69335 51.0405 4.67701 50.7754 3.94749 50.3313L3.42754 51.1855ZM7.30549 51.1777C6.36883 50.5178 5.93352 49.6978 5.93352 48.6884H4.93352C4.93352 50.055 5.5542 51.1671 6.72954 51.9952L7.30549 51.1777ZM12.7555 49.1924C12.7555 48.3486 12.4241 47.6556 11.7515 47.1817L11.1755 47.9992C11.5589 48.2693 11.7555 48.6442 11.7555 49.1924H12.7555ZM11.7515 47.1817C11.1119 46.7311 10.2853 46.5324 9.32152 46.5324V47.5324C10.1578 47.5324 10.7591 47.7058 11.1755 47.9992L11.7515 47.1817ZM9.32152 46.5324C8.41489 46.5324 7.64358 46.7011 7.08968 47.1194C6.50932 47.5577 6.24752 48.2077 6.24752 48.9764H7.24752C7.24752 48.4491 7.41471 48.1271 7.69235 47.9174C7.99645 47.6877 8.51214 47.5324 9.32152 47.5324V46.5324ZM6.24752 48.9764C6.24752 49.6058 6.42825 50.189 6.78322 50.7144L7.61181 50.1545C7.36678 49.7919 7.24752 49.4031 7.24752 48.9764H6.24752ZM6.77803 50.7065C7.11255 51.2222 7.57318 51.6507 8.14481 51.9963L8.66223 51.1406C8.20186 50.8622 7.85848 50.5346 7.617 50.1623L6.77803 50.7065ZM8.41715 52.0682C9.76312 52.0315 10.8399 51.8245 11.5755 51.3859L11.0635 50.5269C10.5511 50.8324 9.68391 51.0333 8.38988 51.0686L8.41715 52.0682ZM11.5816 51.3823C12.3673 50.8987 12.7555 50.1411 12.7555 49.1924H11.7555C11.7555 49.8277 11.5197 50.2461 11.0575 50.5306L11.5816 51.3823ZM0.951515 1.45309L1.05108 0.963106L0.451515 0.841279V1.45309H0.951515ZM13.3535 3.97309H13.8535V3.56447L13.4531 3.48311L13.3535 3.97309ZM13.3535 6.16909L13.461 6.6574L13.8535 6.57101V6.16909H13.3535ZM2.96752 8.45509L2.86004 7.96678L2.85923 8.94323L2.96752 8.45509ZM13.3535 10.7591H13.8535V10.3579L13.4618 10.271L13.3535 10.7591ZM13.3535 12.9011L13.4531 13.3911L13.8535 13.3097V12.9011H13.3535ZM0.951515 15.4211H0.451515L0.451515 16.0329L1.05108 15.9111L0.951515 15.4211ZM0.951515 13.7471L0.86143 13.2553L0.451515 13.3304V13.7471H0.951515ZM11.8595 11.7491L11.9496 12.2409L11.9667 11.2607L11.8595 11.7491ZM0.951515 9.35509H0.451515V9.75726L0.844331 9.84347L0.951515 9.35509ZM0.951515 7.53709L0.842028 7.04923L0.451515 7.13687L0.451515 7.53709H0.951515ZM11.8595 5.08909L11.969 5.57696L11.9527 4.59786L11.8595 5.08909ZM0.951515 3.01909H0.451515V3.43313L0.858295 3.51033L0.951515 3.01909ZM0.851953 1.94308L13.254 4.46308L13.4531 3.48311L1.05108 0.963106L0.851953 1.94308ZM12.8535 3.97309L12.8535 6.16909H13.8535L13.8535 3.97309H12.8535ZM13.246 5.68078L2.86004 7.96678L3.07499 8.9434L13.461 6.6574L13.246 5.68078ZM2.85923 8.94323L13.2452 11.2472L13.4618 10.271L3.0758 7.96696L2.85923 8.94323ZM12.8535 10.7591V12.9011H13.8535V10.7591H12.8535ZM13.254 12.4111L0.851953 14.9311L1.05108 15.9111L13.4531 13.3911L13.254 12.4111ZM1.45152 15.4211V13.7471H0.451515V15.4211H1.45152ZM1.0416 14.2389L11.9496 12.2409L11.7694 11.2573L0.86143 13.2553L1.0416 14.2389ZM11.9667 11.2607L1.0587 8.86672L0.844331 9.84347L11.7523 12.2375L11.9667 11.2607ZM1.45152 9.35509V7.53709H0.451515V9.35509H1.45152ZM1.061 8.02496L11.969 5.57696L11.75 4.60123L0.842028 7.04923L1.061 8.02496ZM11.9527 4.59786L1.04474 2.52786L0.858295 3.51033L11.7663 5.58033L11.9527 4.59786ZM1.45152 3.01909L1.45152 1.45309H0.451515L0.451515 3.01909H1.45152Z" fill="black"/>
</svg>
